<svg width="37" height="31" viewBox="0 0 37 31" fill="none" xmlns="http://www.w3.org/2000/svg">
<path d="M28.9437 4.64848L22.4698 7.77347L11.9616 0.535729C11.8215 0.439427 11.6565 0.382881 11.4832 0.371817C11.3099 0.360752 11.1344 0.395562 10.9746 0.472721L7.2644 2.26366C6.66227 2.55432 6.47964 3.32309 6.89812 3.80506L13.9249 11.8981L8.09849 14.7106L4.22511 12.7254C3.95425 12.5865 3.6265 12.5861 3.34158 12.7236L1.07637 13.817C0.486696 14.1017 0.296113 14.8482 0.689527 15.3342L5.15175 20.4162L6.04423 27.2212C6.15103 27.8456 6.82597 28.1743 7.41564 27.8897L9.68085 26.7963C9.96634 26.6585 10.1761 26.3986 10.2474 26.0945L11.2681 21.7469L17.0946 18.9345L18.5666 29.7082C18.6543 30.3498 19.3408 30.6997 19.9429 30.4091L23.6532 28.6181C23.9783 28.4612 24.2022 28.1469 24.2404 27.7953L25.6394 14.8098L32.1133 11.6848C34.1157 10.7183 36.8417 7.485 35.9664 5.54175C35.091 3.59851 30.946 3.68191 28.9437 4.64848Z" fill="#3751FF" fill-opacity="0.7"/>
</svg>
