<svg width="137" height="44" viewBox="0 0 137 44" fill="none" xmlns="http://www.w3.org/2000/svg">
<path d="M31.9437 13.1794L25.4698 16.3044L14.9616 9.06667C14.8215 8.97037 14.6565 8.91383 14.4832 8.90276C14.3099 8.8917 14.1344 8.92651 13.9746 9.00367L10.2644 10.7946C9.66227 11.0853 9.47964 11.854 9.89812 12.336L16.9249 20.4291L11.0985 23.2415L7.22511 21.2564C6.95425 21.1174 6.6265 21.117 6.34158 21.2545L4.07637 22.348C3.4867 22.6326 3.29611 23.3791 3.68953 23.8652L8.15175 28.9471L9.04423 35.7522C9.15103 36.3766 9.82597 36.7053 10.4156 36.4207L12.6809 35.3272C12.9663 35.1894 13.1761 34.9295 13.2474 34.6254L14.2681 30.2779L20.0946 27.4654L21.5666 38.2391C21.6543 38.8808 22.3408 39.2307 22.9429 38.94L26.6532 37.1491C26.9783 36.9921 27.2022 36.6779 27.2404 36.3262L28.6394 23.3408L35.1133 20.2158C37.1157 19.2492 39.8417 16.0159 38.9664 14.0727C38.091 12.1295 33.946 12.2129 31.9437 13.1794Z" fill="#3751FF" fill-opacity="0.7"/>
<path opacity="0.7" d="M67.87 16.472L61.847 30H59.852L53.829 16.472H56.375L60.878 26.922L65.381 16.472H67.87ZM72.6231 30.152C71.6477 30.152 70.7864 29.9493 70.0391 29.544C69.3044 29.1387 68.7344 28.5623 68.3291 27.815C67.9364 27.055 67.7401 26.1683 67.7401 25.155C67.7401 24.1417 67.9364 23.2613 68.3291 22.514C68.7344 21.754 69.3044 21.1713 70.0391 20.766C70.7864 20.3607 71.6477 20.158 72.6231 20.158C73.5857 20.158 74.4344 20.3607 75.1691 20.766C75.9037 21.1713 76.4674 21.754 76.8601 22.514C77.2654 23.2613 77.4681 24.1417 77.4681 25.155C77.4681 26.1683 77.2654 27.055 76.8601 27.815C76.4674 28.5623 75.9037 29.1387 75.1691 29.544C74.4344 29.9493 73.5857 30.152 72.6231 30.152ZM72.6041 28.29C73.4147 28.29 74.0291 28.0303 74.4471 27.511C74.8777 26.979 75.0931 26.1937 75.0931 25.155C75.0931 24.129 74.8777 23.35 74.4471 22.818C74.0164 22.2733 73.4084 22.001 72.6231 22.001C71.8251 22.001 71.2107 22.2733 70.7801 22.818C70.3494 23.35 70.1341 24.129 70.1341 25.155C70.1341 26.1937 70.3431 26.979 70.7611 27.511C71.1917 28.0303 71.8061 28.29 72.6041 28.29ZM88.3142 25.326H81.7022C81.7529 26.352 82.0062 27.112 82.4622 27.606C82.9309 28.0873 83.6212 28.328 84.5332 28.328C85.5846 28.328 86.5599 27.986 87.4592 27.302L88.1432 28.936C87.6872 29.3033 87.1236 29.601 86.4522 29.829C85.7936 30.0443 85.1222 30.152 84.4382 30.152C82.8676 30.152 81.6326 29.7087 80.7332 28.822C79.8339 27.9353 79.3842 26.7193 79.3842 25.174C79.3842 24.1987 79.5806 23.331 79.9732 22.571C80.3659 21.811 80.9169 21.222 81.6262 20.804C82.3356 20.3733 83.1399 20.158 84.0392 20.158C85.3566 20.158 86.3952 20.5887 87.1552 21.45C87.9279 22.2987 88.3142 23.4703 88.3142 24.965V25.326ZM84.0962 21.868C83.4629 21.868 82.9436 22.058 82.5382 22.438C82.1456 22.8053 81.8922 23.3437 81.7782 24.053H86.2432C86.1672 23.331 85.9456 22.7863 85.5782 22.419C85.2236 22.0517 84.7296 21.868 84.0962 21.868ZM104.832 23.008C105.618 23.236 106.219 23.635 106.637 24.205C107.068 24.775 107.283 25.478 107.283 26.314C107.283 27.4667 106.872 28.3723 106.048 29.031C105.238 29.677 104.104 30 102.647 30H96.5103V16.472H102.457C103.851 16.472 104.946 16.7887 105.744 17.422C106.542 18.0427 106.941 18.904 106.941 20.006C106.941 20.7153 106.751 21.336 106.371 21.868C106.004 22.3873 105.491 22.7673 104.832 23.008ZM98.9043 22.172H102.058C103.756 22.172 104.604 21.5387 104.604 20.272C104.604 19.6387 104.395 19.1637 103.977 18.847C103.559 18.5303 102.92 18.372 102.058 18.372H98.9043V22.172ZM102.381 28.1C103.268 28.1 103.914 27.9417 104.319 27.625C104.737 27.3083 104.946 26.808 104.946 26.124C104.946 25.4273 104.737 24.9143 104.319 24.585C103.914 24.2557 103.268 24.091 102.381 24.091H98.9043V28.1H102.381ZM118.255 25.326H111.643C111.694 26.352 111.947 27.112 112.403 27.606C112.872 28.0873 113.562 28.328 114.474 28.328C115.526 28.328 116.501 27.986 117.4 27.302L118.084 28.936C117.628 29.3033 117.065 29.601 116.393 29.829C115.735 30.0443 115.063 30.152 114.379 30.152C112.809 30.152 111.574 29.7087 110.674 28.822C109.775 27.9353 109.325 26.7193 109.325 25.174C109.325 24.1987 109.522 23.331 109.914 22.571C110.307 21.811 110.858 21.222 111.567 20.804C112.277 20.3733 113.081 20.158 113.98 20.158C115.298 20.158 116.336 20.5887 117.096 21.45C117.869 22.2987 118.255 23.4703 118.255 24.965V25.326ZM114.037 21.868C113.404 21.868 112.885 22.058 112.479 22.438C112.087 22.8053 111.833 23.3437 111.719 24.053H116.184C116.108 23.331 115.887 22.7863 115.519 22.419C115.165 22.0517 114.671 21.868 114.037 21.868ZM131.991 20.158C133.08 20.158 133.891 20.4873 134.423 21.146C134.955 21.792 135.221 22.78 135.221 24.11V30H132.846V24.186C132.846 23.426 132.719 22.8813 132.466 22.552C132.225 22.21 131.82 22.039 131.25 22.039C130.591 22.039 130.072 22.2733 129.692 22.742C129.324 23.198 129.141 23.8313 129.141 24.642V30H126.766V24.186C126.766 23.4387 126.633 22.894 126.367 22.552C126.113 22.21 125.708 22.039 125.151 22.039C124.492 22.039 123.973 22.2733 123.593 22.742C123.213 23.198 123.023 23.8313 123.023 24.642V30H120.667V23.122C120.667 22.1087 120.616 21.203 120.515 20.405H122.738L122.909 21.925C123.187 21.355 123.586 20.918 124.106 20.614C124.638 20.31 125.246 20.158 125.93 20.158C127.399 20.158 128.355 20.766 128.799 21.982C129.103 21.412 129.533 20.9687 130.091 20.652C130.661 20.3227 131.294 20.158 131.991 20.158Z" fill="#E5E5E5"/>
</svg>
