<svg width="25" height="23" viewBox="0 0 25 23" fill="none" xmlns="http://www.w3.org/2000/svg">
<path d="M20.8332 8.33333H15.8727L11.3111 0.349826C11.2503 0.243536 11.1624 0.155204 11.0565 0.0937728C10.9505 0.0323416 10.8302 -7.67912e-06 10.7078 1.36733e-09L7.8649 1.36733e-09C7.40353 1.36733e-09 7.07063 0.441406 7.19737 0.884983L9.32541 8.33333H4.861L2.986 5.83333C2.85492 5.65842 2.64876 5.55556 2.43044 5.55556H0.694763C0.24294 5.55556 -0.0886568 5.98003 0.0211523 6.4184L1.38877 11.1111L0.0211523 15.8038C-0.0886568 16.2422 0.24294 16.6667 0.694763 16.6667H2.43044C2.64919 16.6667 2.85492 16.5638 2.986 16.3889L4.861 13.8889H9.32541L7.19737 21.3368C7.07063 21.7804 7.40353 22.2222 7.8649 22.2222H10.7078C10.9569 22.2222 11.187 22.0885 11.3106 21.8724L15.8727 13.8889H20.8332C22.3675 13.8889 24.9999 12.6454 24.9999 11.1111C24.9999 9.57682 22.3675 8.33333 20.8332 8.33333Z" fill="#A4A6B3"/>
</svg>
