<svg width="25" height="20" viewBox="0 0 25 20" fill="none" xmlns="http://www.w3.org/2000/svg">
<path d="M24.375 17.5H0.625C0.279687 17.5 0 17.7797 0 18.125V19.375C0 19.7203 0.279687 20 0.625 20H24.375C24.7203 20 25 19.7203 25 19.375V18.125C25 17.7797 24.7203 17.5 24.375 17.5ZM1.75039 8.03362L5.2168 11.1586C5.50122 11.4155 5.84203 11.6018 6.21172 11.7028L17.4461 14.7633C18.4805 15.045 19.5773 15.1039 20.6102 14.8164C21.7691 14.4934 22.307 13.9879 22.4559 13.4215C22.6055 12.8551 22.3883 12.1438 21.543 11.2746C20.7898 10.5004 19.8105 9.99378 18.7762 9.71214L14.9672 8.67464L11.0469 1.1805C10.9879 0.953546 10.8145 0.776202 10.5914 0.715265L8.04883 0.0226868C7.63633 -0.0898132 7.23242 0.230499 7.23984 0.664874L9.11172 7.07933L5.11953 5.99183L4.0418 3.34026C3.96641 3.14925 3.80703 3.0055 3.61133 2.95237L2.05938 2.52933C1.65547 2.41917 1.25742 2.72464 1.25 3.14964L1.25898 7.12542C1.26641 7.47347 1.49453 7.80276 1.75039 8.03362Z" fill="#A4A6B3"/>
</svg>
