<svg width="26" height="26" viewBox="0 0 26 26" fill="none" xmlns="http://www.w3.org/2000/svg">
<path d="M24.4702 19.3213L18.7524 13.6035C17.6245 12.4756 15.9399 12.2559 14.5825 12.9248L9.37744 7.71973V4.6875L3.12744 0L0.00244137 3.125L4.68994 9.375H7.72217L12.9272 14.5801C12.2632 15.9375 12.478 17.6221 13.606 18.75L19.3237 24.4678C20.0366 25.1807 21.189 25.1807 21.897 24.4678L24.4702 21.8945C25.1782 21.1816 25.1782 20.0293 24.4702 19.3213ZM16.1987 10.9863C17.5806 10.9863 18.8794 11.5234 19.856 12.5L20.8032 13.4473C21.5747 13.1104 22.3071 12.6416 22.9419 12.0068C24.7534 10.1953 25.3687 7.64648 24.7925 5.33203C24.6851 4.89258 24.1333 4.74121 23.811 5.06348L20.1782 8.69629L16.8628 8.14453L16.311 4.8291L19.9438 1.19629C20.2661 0.874023 20.1099 0.322266 19.6655 0.209961C17.3511 -0.361328 14.8022 0.253906 12.9956 2.06055C11.604 3.45215 10.9497 5.28809 10.9839 7.11914L14.9927 11.1279C15.3882 11.0352 15.7983 10.9863 16.1987 10.9863ZM11.1255 14.9902L8.35693 12.2217L0.915527 19.668C-0.305176 20.8887 -0.305176 22.8662 0.915527 24.0869C2.13623 25.3076 4.11377 25.3076 5.33447 24.0869L11.3696 18.0518C10.9985 17.0801 10.8862 16.0205 11.1255 14.9902ZM3.12744 23.0469C2.48291 23.0469 1.95557 22.5195 1.95557 21.875C1.95557 21.2256 2.47803 20.7031 3.12744 20.7031C3.77686 20.7031 4.29932 21.2256 4.29932 21.875C4.29932 22.5195 3.77686 23.0469 3.12744 23.0469Z" fill="#A4A6B3"/>
</svg>
