<svg width="25" height="19" viewBox="0 0 25 19" fill="none" xmlns="http://www.w3.org/2000/svg">
<path d="M24.3751 16.2503H0.625111C0.279799 16.2503 0.000111041 16.53 0.000111041 16.8753V18.1253C0.000111041 18.4706 0.279799 18.7503 0.625111 18.7503H24.3751C24.7204 18.7503 25.0001 18.4706 25.0001 18.1253V16.8753C25.0001 16.53 24.7204 16.2503 24.3751 16.2503ZM3.1466 12.0811C3.39191 12.3483 3.73644 12.4999 4.09699 12.4995L9.1962 12.4925C9.59862 12.4919 9.99526 12.3967 10.354 12.2143L21.7196 6.44677C22.7642 5.91669 23.7005 5.16005 24.3376 4.16903C25.0528 3.05653 25.1306 2.25145 24.8482 1.6827C24.5665 1.11356 23.8818 0.695594 22.5728 0.610438C21.4068 0.534657 20.247 0.841688 19.2025 1.37138L15.3544 3.32411L6.81144 0.118641C6.70872 0.0494448 6.58939 0.0089413 6.46577 0.00131842C6.34216 -0.00630447 6.21875 0.0192299 6.10831 0.0752815L3.53996 1.3788C3.12316 1.59013 3.02238 2.14638 3.338 2.49325L9.44034 6.32528L5.4087 8.37138L2.58253 6.94677C2.48516 6.89768 2.37762 6.87217 2.26857 6.8723C2.15953 6.87244 2.05204 6.89821 1.9548 6.94755L0.38722 7.74325C-0.0205921 7.95028 -0.128014 8.49013 0.169642 8.84013L3.1466 12.0811Z" fill="#A4A6B3"/>
</svg>
