<svg width="25" height="25" viewBox="0 0 25 25" fill="none" xmlns="http://www.w3.org/2000/svg">
<path d="M16.678 4.82337C14.0614 4.82337 11.9004 3.12498 8.61074 3.12498C7.39224 3.12498 6.30073 3.33905 5.28823 3.71156C5.42855 3.34509 5.48827 2.95269 5.46333 2.56107C5.37681 1.17259 4.23857 0.0588695 2.84854 0.00232655C1.28638 -0.0612477 0 1.18631 0 2.73436C0 3.66336 0.463721 4.48363 1.17188 4.97777V23.8281C1.17188 24.4753 1.69653 25 2.34375 25H3.125C3.77222 25 4.29688 24.4753 4.29688 23.8281V19.2187C5.67925 18.6297 7.40146 18.1386 9.88452 18.1386C12.5011 18.1386 14.6621 19.8369 17.9518 19.8369C20.3038 19.8369 22.1835 19.0413 23.9334 17.8419C24.3574 17.5513 24.6094 17.0689 24.6094 16.5549V4.6848C24.6094 3.54256 23.4244 2.78685 22.3884 3.268C20.7118 4.04671 18.6553 4.82337 16.678 4.82337Z" fill="#A4A6B3"/>
</svg>
